{
  "accessors": [
    {
      "bufferView": 0,
      "byteOffset": 0,
      "componentType": 5123,
      "count": 1482,
      "max": [
        559.0
      ],
      "min": [
        0.0
      ],
      "name": "buffer-0-group-0-mesh-0-indices",
      "type": "SCALAR"
    },
    {
      "bufferView": 1,
      "byteOffset": 0,
      "componentType": 5126,
      "count": 560,
      "max": [
        -4.238500118255615,
        0.8550999760627747,
        1.7970999479293823
      ],
      "min": [
        -4.486700057983398,
        0.2809000015258789,
        1.4198999404907227
      ],
      "name": "buffer-0-group-0-mesh-0-position",
      "type": "VEC3"
    },
    {
      "bufferView": 1,
      "byteOffset": 6720,
      "componentType": 5126,
      "count": 560,
      "max": [
        0.9996623396873474,
        0.9988113641738892,
        0.9979753494262695
      ],
      "min": [
        -0.9998040795326233,
        -0.9999976754188538,
        -0.9981080293655396
      ],
      "name": "buffer-0-group-0-mesh-0-normal",
      "type": "VEC3"
    },
    {
      "bufferView": 2,
      "byteOffset": 0,
      "componentType": 5126,
      "count": 560,
      "max": [
        0.9789999723434448,
        -0.020400000736117363
      ],
      "min": [
        0.01590000092983246,
        -0.9797999858856201
      ],
      "name": "buffer-0-group-0-mesh-0-texcoord",
      "type": "VEC2"
    },
    {
      "bufferView": 0,
      "byteOffset": 2964,
      "componentType": 5123,
      "count": 4590,
      "max": [
        1627.0
      ],
      "min": [
        0.0
      ],
      "name": "buffer-0-group-1-mesh-0-indices",
      "type": "SCALAR"
    },
    {
      "bufferView": 1,
      "byteOffset": 13440,
      "componentType": 5126,
      "count": 1628,
      "max": [
        -4.078800201416016,
        1.8305000066757202,
        1.7964999675750732
      ],
      "min": [
        -4.586299896240234,
        0.40700000524520874,
        1.4594999551773071
      ],
      "name": "buffer-0-group-1-mesh-0-position",
      "type": "VEC3"
    },
    {
      "bufferView": 1,
      "byteOffset": 32976,
      "componentType": 5126,
      "count": 1628,
      "max": [
        0.9993044137954712,
        0.9687949419021606,
        0.9997209906578064
      ],
      "min": [
        -0.9998290538787842,
        -0.9981494545936584,
        -0.996391773223877
      ],
      "name": "buffer-0-group-1-mesh-0-normal",
      "type": "VEC3"
    },
    {
      "bufferView": 2,
      "byteOffset": 4480,
      "componentType": 5126,
      "count": 1628,
      "max": [
        0.9850000143051147,
        -0.01600000075995922
      ],
      "min": [
        0.004399999976158142,
        -0.9889000058174133
      ],
      "name": "buffer-0-group-1-mesh-0-texcoord",
      "type": "VEC2"
    },
    {
      "bufferView": 0,
      "byteOffset": 12144,
      "componentType": 5123,
      "count": 1014,
      "max": [
        338.0
      ],
      "min": [
        0.0
      ],
      "name": "buffer-0-group-2-mesh-0-indices",
      "type": "SCALAR"
    },
    {
      "bufferView": 1,
      "byteOffset": 52512,
      "componentType": 5126,
      "count": 339,
      "max": [
        -4.062399864196777,
        1.2353999614715576,
        1.7020000219345093
      ],
      "min": [
        -4.5995001792907715,
        1.0787999629974365,
        1.4694000482559204
      ],
      "name": "buffer-0-group-2-mesh-0-position",
      "type": "VEC3"
    },
    {
      "bufferView": 1,
      "byteOffset": 56580,
      "componentType": 5126,
      "count": 339,
      "max": [
        0.9985005259513855,
        0.6354266405105591,
        0.9965188503265381
      ],
      "min": [
        -0.992374062538147,
        -0.9519023895263672,
        -0.9909409284591675
      ],
      "name": "buffer-0-group-2-mesh-0-normal",
      "type": "VEC3"
    },
    {
      "bufferView": 2,
      "byteOffset": 17504,
      "componentType": 5126,
      "count": 339,
      "max": [
        0.6007000207901001,
        -0.29980000853538513
      ],
      "min": [
        0.23999999463558197,
        -0.7861999869346619
      ],
      "name": "buffer-0-group-2-mesh-0-texcoord",
      "type": "VEC2"
    },
    {
      "bufferView": 0,
      "byteOffset": 14172,
      "componentType": 5123,
      "count": 1059,
      "max": [
        321.0
      ],
      "min": [
        0.0
      ],
      "name": "buffer-0-group-3-mesh-0-indices",
      "type": "SCALAR"
    },
    {
      "bufferView": 1,
      "byteOffset": 60648,
      "componentType": 5126,
      "count": 322,
      "max": [
        -4.245100021362305,
        2.021899938583374,
        1.732300043106079
      ],
      "min": [
        -4.443399906158447,
        1.8241000175476074,
        1.5068000555038452
      ],
      "name": "buffer-0-group-3-mesh-0-position",
      "type": "VEC3"
    },
    {
      "bufferView": 1,
      "byteOffset": 64512,
      "componentType": 5126,
      "count": 322,
      "max": [
        0.9986755847930908,
        0.9993890523910522,
        0.9899167418479919
      ],
      "min": [
        -0.995205819606781,
        -0.831685483455658,
        -0.9603931903839111
      ],
      "name": "buffer-0-group-3-mesh-0-normal",
      "type": "VEC3"
    },
    {
      "bufferView": 2,
      "byteOffset": 20216,
      "componentType": 5126,
      "count": 322,
      "max": [
        0.794700026512146,
        -0.10830000042915344
      ],
      "min": [
        0.010499999858438969,
        -1.0061999559402466
      ],
      "name": "buffer-0-group-3-mesh-0-texcoord",
      "type": "VEC2"
    },
    {
      "bufferView": 0,
      "byteOffset": 16290,
      "componentType": 5123,
      "count": 1380,
      "max": [
        290.0
      ],
      "min": [
        0.0
      ],
      "name": "buffer-0-group-4-mesh-0-indices",
      "type": "SCALAR"
    },
    {
      "bufferView": 1,
      "byteOffset": 68376,
      "componentType": 5126,
      "count": 291,
      "max": [
        -4.260000228881836,
        1.9752999544143677,
        1.7254999876022339
      ],
      "min": [
        -4.422399997711182,
        1.7740000486373901,
        1.5496000051498413
      ],
      "name": "buffer-0-group-4-mesh-0-position",
      "type": "VEC3"
    },
    {
      "bufferView": 1,
      "byteOffset": 71868,
      "componentType": 5126,
      "count": 291,
      "max": [
        0.9989244341850281,
        0.9992595911026001,
        0.9929543733596802
      ],
      "min": [
        -0.999876081943512,
        -0.9869672060012817,
        -0.9977291822433472
      ],
      "name": "buffer-0-group-4-mesh-0-normal",
      "type": "VEC3"
    },
    {
      "bufferView": 2,
      "byteOffset": 22792,
      "componentType": 5126,
      "count": 291,
      "max": [
        0.9940000176429749,
        -0.03150000050663948
      ],
      "min": [
        0.007199999876320362,
        -0.7804999947547913
      ],
      "name": "buffer-0-group-4-mesh-0-texcoord",
      "type": "VEC2"
    }
  ],
  "asset": {
    "generator": "Obj2GltfConverter",
    "version": "2.0"
  },
  "bufferViews": [
    {
      "buffer": 0,
      "byteLength": 19050,
      "byteOffset": 0,
      "name": "buffer-0-bufferview-ushort",
      "target": 34963
    },
    {
      "buffer": 0,
      "byteLength": 75360,
      "byteOffset": 19056,
      "byteStride": 12,
      "name": "buffer-0-bufferview-vec3",
      "target": 34962
    },
    {
      "buffer": 0,
      "byteLength": 25120,
      "byteOffset": 94416,
      "byteStride": 8,
      "name": "buffer-0-bufferview-vec2",
      "target": 34962
    }
  ],
  "buffers": [
    {
      "byteLength": 119536,
      "name": "buffer-0",
      "uri": "google poly.bin"
    }
  ],
  "images": [
    {
      "mimeType": "image/jpeg",
      "name": "10_Default-diffuse-image",
      "uri": "16b47430-nen.jpg"
    },
    {
      "mimeType": "image/jpeg",
      "name": "11_Default-diffuse-image",
      "uri": "172e6f70-nen.jpg"
    },
    {
      "mimeType": "image/jpeg",
      "name": "9_Default-diffuse-image",
      "uri": "17b596f0 (1) nen.jpg"
    },
    {
      "mimeType": "image/jpeg",
      "name": "15_Default-diffuse-image",
      "uri": "176ea390-nen.jpg"
    },
    {
      "mimeType": "image/jpeg",
      "name": "12_Default-diffuse-image",
      "uri": "1751db30-(1)-nen.jpg"
    }
  ],
  "materials": [
    {
      "alphaMode": "OPAQUE",
      "doubleSided": true,
      "name": "10_Default",
      "pbrMetallicRoughness": {
        "baseColorFactor": [
          0.588,
          0.588,
          0.588,
          1.0
        ],
        "baseColorTexture": {
          "index": 0,
          "texCoord": 0
        },
        "metallicFactor": 0.0,
        "roughnessFactor": 0.9699476628648295
      }
    },
    {
      "alphaMode": "OPAQUE",
      "doubleSided": true,
      "name": "11_Default",
      "pbrMetallicRoughness": {
        "baseColorFactor": [
          0.588,
          0.588,
          0.588,
          1.0
        ],
        "baseColorTexture": {
          "index": 1,
          "texCoord": 0
        },
        "metallicFactor": 0.0,
        "roughnessFactor": 0.9699476628648295
      }
    },
    {
      "alphaMode": "OPAQUE",
      "doubleSided": true,
      "name": "9_Default",
      "pbrMetallicRoughness": {
        "baseColorFactor": [
          0.588,
          0.588,
          0.588,
          1.0
        ],
        "baseColorTexture": {
          "index": 2,
          "texCoord": 0
        },
        "metallicFactor": 0.0,
        "roughnessFactor": 0.9699476628648295
      }
    },
    {
      "alphaMode": "OPAQUE",
      "doubleSided": true,
      "name": "15_Default",
      "pbrMetallicRoughness": {
        "baseColorFactor": [
          0.588,
          0.588,
          0.588,
          1.0
        ],
        "baseColorTexture": {
          "index": 3,
          "texCoord": 0
        },
        "metallicFactor": 0.0,
        "roughnessFactor": 0.9699476628648295
      }
    },
    {
      "alphaMode": "OPAQUE",
      "doubleSided": true,
      "name": "12_Default",
      "pbrMetallicRoughness": {
        "baseColorFactor": [
          0.588,
          0.588,
          0.588,
          1.0
        ],
        "baseColorTexture": {
          "index": 4,
          "texCoord": 0
        },
        "metallicFactor": 0.0,
        "roughnessFactor": 0.9699476628648295
      }
    }
  ],
  "meshes": [
    {
      "name": "buffer-0-mesh-0",
      "primitives": [
        {
          "attributes": {
            "POSITION": 1,
            "NORMAL": 2,
            "TEXCOORD_0": 3
          },
          "indices": 0,
          "material": 0,
          "mode": 4
        },
        {
          "attributes": {
            "POSITION": 5,
            "NORMAL": 6,
            "TEXCOORD_0": 7
          },
          "indices": 4,
          "material": 1,
          "mode": 4
        },
        {
          "attributes": {
            "POSITION": 9,
            "NORMAL": 10,
            "TEXCOORD_0": 11
          },
          "indices": 8,
          "material": 2,
          "mode": 4
        },
        {
          "attributes": {
            "POSITION": 13,
            "NORMAL": 14,
            "TEXCOORD_0": 15
          },
          "indices": 12,
          "material": 3,
          "mode": 4
        },
        {
          "attributes": {
            "POSITION": 17,
            "NORMAL": 18,
            "TEXCOORD_0": 19
          },
          "indices": 16,
          "material": 4,
          "mode": 4
        }
      ]
    }
  ],
  "nodes": [
    {
      "mesh": 0,
      "name": "node-0"
    }
  ],
  "samplers": [
    {
      "name": "10_Default-diffuse-sampler",
      "wrapS": 10497,
      "wrapT": 10497
    },
    {
      "name": "11_Default-diffuse-sampler",
      "wrapS": 10497,
      "wrapT": 10497
    },
    {
      "name": "9_Default-diffuse-sampler",
      "wrapS": 10497,
      "wrapT": 10497
    },
    {
      "name": "15_Default-diffuse-sampler",
      "wrapS": 10497,
      "wrapT": 10497
    },
    {
      "name": "12_Default-diffuse-sampler",
      "wrapS": 10497,
      "wrapT": 10497
    }
  ],
  "scenes": [
    {
      "name": "scene-0",
      "nodes": [
        0
      ]
    }
  ],
  "textures": [
    {
      "name": "10_Default-diffuse-texture",
      "sampler": 0,
      "source": 0
    },
    {
      "name": "11_Default-diffuse-texture",
      "sampler": 1,
      "source": 1
    },
    {
      "name": "9_Default-diffuse-texture",
      "sampler": 2,
      "source": 2
    },
    {
      "name": "15_Default-diffuse-texture",
      "sampler": 3,
      "source": 3
    },
    {
      "name": "12_Default-diffuse-texture",
      "sampler": 4,
      "source": 4
    }
  ]
}